# xmcd
#
# Track frame offsets: 
#        150
#        17122
#        35320
#        52243
#        77876
#        99045
#        119668
#        147519
#        170074
#        188052
#        208092
#        220594
#
# Disc length: 3272 seconds
#
# Revision: 0
# Processed by: cddbd v1.5.2PL0 Copyright (c) Steve Scherf et al.
# Submitted via: ExactAudioCopy v1.0b4
#
DISCID=ad0cc60c
DTITLE=Tito and Tarantula - Tarantism (Remastered)
DYEAR=2015
DGENRE=Blues Rock
TTITLE0=After Dark
TTITLE1=Smiling Karen
TTITLE2=Slippin' and Slidin'
TTITLE3=Strange Face
TTITLE4=Angry Cockroaches
TTITLE5=Back To The House
TTITLE6=Jupiter
TTITLE7=Sweet Cycle
TTITLE8=Flying In My Sleep
TTITLE9=Killing Just For Fun
TTITLE10=Torquay
TTITLE11=White Train
EXTD=
EXTT0=
EXTT1=
EXTT2=
EXTT3=
EXTT4=
EXTT5=
EXTT6=
EXTT7=
EXTT8=
EXTT9=
EXTT10=
EXTT11=
PLAYORDER=
